<svg viewBox="0 0 30 30" xmlns="http://www.w3.org/2000/svg">
  <path d="M7,5c-3.31,0-6,2.69-6,6v10c0,3.31,2.69,6,6,6h16c3.31,0,6-2.69,6-6V11c0-3.31-2.69-6-6-6H7zM13,13c2.21,0,4,1.79,4,4s-1.79,4-4,4-4-1.79-4-4s1.79-4,4-4zM25,17c-1.1,0-2,0.9-2,2s0.9,2,2,2c1.1,0,2-0.9,2-2s-0.9-2-2-2z" fill="#333"/>
  <path d="M7,21h16c1.66,0,3-1.34,3-3V11c0-1.66-1.34-3-3-3H7c-1.66,0-3,1.34-3,3v10c0,1.66,1.34,3,3,3zM17,15c1.1,0,2,0.9,2,2s-0.9,2-2,2-2-0.9-2-2s0.9-2,2-2zM13,15c-1.1,0-2,0.9-2,2s0.9,2,2,2c1.1,0,2-0.9,2-2s-0.9-2-2-2z" fill="#eee"/>
  <path d="M10,11c0.55,0,1,0.45,1,1s-0.45,1-1,1-1-0.45-1-1s0.45-1,1-1zM20,11c0.55,0,1,0.45,1,1s-0.45,1-1,1-1-0.45-1-1s0.45-1,1-1z" fill="#ccc"/>
  <path d="M15,17c1.1,0,2,0.9,2,2s-0.9,2-2,2-2-0.9-2-2s0.9-2,2-2z" fill="#ddd"/>
</svg>
